<svg width="134" height="19" viewBox="0 0 134 19" fill="none" xmlns="http://www.w3.org/2000/svg">
<path d="M7.74475 1.008H10.7928L12.7128 6.648L14.6328 1.008H17.7048L14.8008 8.76L16.9608 14.208L21.7848 0.959999H25.3848L18.4488 18H15.6648L12.7128 10.848L9.76075 18H6.97675L0.0887527 0.959999H3.64075L8.48875 14.208L10.6008 8.76L7.74475 1.008ZM31.8235 18.24C30.8155 18.24 29.9035 18.072 29.0875 17.736C28.2715 17.384 27.5755 16.912 26.9995 16.32C26.4235 15.728 25.9755 15.04 25.6555 14.256C25.3515 13.472 25.1995 12.648 25.1995 11.784C25.1995 10.888 25.3515 10.048 25.6555 9.264C25.9595 8.464 26.3995 7.768 26.9755 7.176C27.5515 6.568 28.2475 6.088 29.0635 5.736C29.8955 5.384 30.8235 5.208 31.8475 5.208C32.8715 5.208 33.7835 5.384 34.5835 5.736C35.3995 6.088 36.0875 6.56 36.6475 7.152C37.2235 7.744 37.6555 8.432 37.9435 9.216C38.2475 10 38.3995 10.816 38.3995 11.664C38.3995 11.872 38.3915 12.072 38.3755 12.264C38.3755 12.456 38.3595 12.616 38.3275 12.744H28.6075C28.6555 13.24 28.7755 13.68 28.9675 14.064C29.1595 14.448 29.4075 14.776 29.7115 15.048C30.0155 15.32 30.3595 15.528 30.7435 15.672C31.1275 15.816 31.5275 15.888 31.9435 15.888C32.5835 15.888 33.1835 15.736 33.7435 15.432C34.3195 15.112 34.7115 14.696 34.9195 14.184L37.6795 14.952C37.2155 15.912 36.4715 16.704 35.4475 17.328C34.4395 17.936 33.2315 18.24 31.8235 18.24ZM35.0875 10.656C35.0075 9.712 34.6555 8.96 34.0315 8.4C33.4235 7.824 32.6795 7.536 31.7995 7.536C31.3675 7.536 30.9595 7.616 30.5755 7.776C30.2075 7.92 29.8795 8.128 29.5915 8.4C29.3035 8.672 29.0635 9 28.8715 9.384C28.6955 9.768 28.5915 10.192 28.5595 10.656H35.0875ZM48.2307 18.24C47.2707 18.24 46.4147 18.024 45.6627 17.592C44.9107 17.16 44.3187 16.568 43.8867 15.816V18H41.0787V0.48H44.2947V7.632C44.7427 6.864 45.3267 6.272 46.0467 5.856C46.7827 5.424 47.6387 5.208 48.6147 5.208C49.4307 5.208 50.1747 5.384 50.8467 5.736C51.5187 6.088 52.0947 6.56 52.5747 7.152C53.0707 7.744 53.4467 8.44 53.7027 9.24C53.9747 10.04 54.1107 10.88 54.1107 11.76C54.1107 12.672 53.9587 13.52 53.6547 14.304C53.3667 15.088 52.9587 15.776 52.4307 16.368C51.9027 16.944 51.2787 17.4 50.5587 17.736C49.8387 18.072 49.0627 18.24 48.2307 18.24ZM47.3427 15.504C47.8547 15.504 48.3267 15.408 48.7587 15.216C49.1907 15.008 49.5587 14.736 49.8627 14.4C50.1667 14.064 50.3987 13.672 50.5587 13.224C50.7347 12.776 50.8227 12.296 50.8227 11.784C50.8227 11.272 50.7427 10.784 50.5827 10.32C50.4227 9.856 50.1907 9.448 49.8867 9.096C49.5987 8.744 49.2547 8.464 48.8547 8.256C48.4547 8.048 48.0147 7.944 47.5347 7.944C46.8147 7.944 46.1667 8.184 45.5907 8.664C45.0307 9.128 44.5987 9.704 44.2947 10.392V13.392C44.4067 13.712 44.5667 14 44.7747 14.256C44.9987 14.512 45.2467 14.736 45.5187 14.928C45.7907 15.104 46.0867 15.248 46.4067 15.36C46.7267 15.456 47.0387 15.504 47.3427 15.504Z" fill="#2196F3"/>
<path d="M67.4736 5.424C67.3616 5.312 67.1536 5.16 66.8496 4.968C66.5616 4.776 66.2016 4.592 65.7696 4.416C65.3536 4.224 64.8976 4.064 64.4016 3.936C63.9056 3.808 63.4016 3.744 62.8896 3.744C61.9776 3.744 61.2976 3.912 60.8496 4.248C60.4016 4.584 60.1776 5.056 60.1776 5.664C60.1776 6.016 60.2576 6.312 60.4176 6.552C60.5936 6.776 60.8416 6.976 61.1616 7.152C61.4816 7.328 61.8816 7.488 62.3616 7.632C62.8576 7.776 63.4256 7.928 64.0656 8.088C64.8976 8.312 65.6496 8.552 66.3216 8.808C67.0096 9.064 67.5856 9.384 68.0496 9.768C68.5296 10.152 68.8976 10.616 69.1536 11.16C69.4096 11.688 69.5376 12.344 69.5376 13.128C69.5376 14.04 69.3616 14.824 69.0096 15.48C68.6736 16.12 68.2096 16.64 67.6176 17.04C67.0416 17.44 66.3696 17.736 65.6016 17.928C64.8496 18.104 64.0576 18.192 63.2256 18.192C61.9456 18.192 60.6816 18 59.4336 17.616C58.1856 17.232 57.0656 16.688 56.0736 15.984L57.5376 13.128C57.6816 13.272 57.9376 13.464 58.3056 13.704C58.6896 13.928 59.1376 14.16 59.6496 14.4C60.1616 14.624 60.7296 14.816 61.3536 14.976C61.9776 15.136 62.6176 15.216 63.2736 15.216C65.0976 15.216 66.0096 14.632 66.0096 13.464C66.0096 13.096 65.9056 12.784 65.6976 12.528C65.4896 12.272 65.1936 12.048 64.8096 11.856C64.4256 11.664 63.9616 11.488 63.4176 11.328C62.8736 11.168 62.2656 10.992 61.5936 10.8C60.7776 10.576 60.0656 10.336 59.4576 10.08C58.8656 9.808 58.3696 9.496 57.9696 9.144C57.5696 8.776 57.2656 8.36 57.0576 7.896C56.8656 7.416 56.7696 6.848 56.7696 6.192C56.7696 5.328 56.9296 4.56 57.2496 3.888C57.5696 3.216 58.0096 2.656 58.5696 2.208C59.1456 1.76 59.8096 1.424 60.5616 1.2C61.3136 0.959999 62.1216 0.839999 62.9856 0.839999C64.1856 0.839999 65.2896 1.032 66.2976 1.416C67.3056 1.784 68.1856 2.224 68.9376 2.736L67.4736 5.424ZM79.8438 17.352C79.4118 17.544 78.8838 17.736 78.2598 17.928C77.6358 18.12 76.9798 18.216 76.2918 18.216C75.8438 18.216 75.4198 18.16 75.0198 18.048C74.6358 17.936 74.2918 17.76 73.9878 17.52C73.6998 17.264 73.4678 16.944 73.2918 16.56C73.1158 16.16 73.0278 15.68 73.0278 15.12V7.896H71.3718V5.424H73.0278V1.344H76.2438V5.424H78.8838V7.896H76.2438V14.04C76.2438 14.488 76.3558 14.808 76.5798 15C76.8198 15.176 77.1078 15.264 77.4438 15.264C77.7798 15.264 78.1078 15.208 78.4278 15.096C78.7478 14.984 79.0038 14.888 79.1958 14.808L79.8438 17.352ZM86.0787 18.24C84.7827 18.24 83.7987 17.824 83.1267 16.992C82.4547 16.16 82.1187 14.928 82.1187 13.296V5.424H85.3347V12.6C85.3347 14.536 86.0307 15.504 87.4227 15.504C88.0467 15.504 88.6467 15.32 89.2227 14.952C89.8147 14.568 90.2947 13.992 90.6627 13.224V5.424H93.8787V14.304C93.8787 14.64 93.9347 14.88 94.0467 15.024C94.1747 15.168 94.3747 15.248 94.6467 15.264V18C94.3267 18.064 94.0547 18.104 93.8307 18.12C93.6227 18.136 93.4307 18.144 93.2547 18.144C92.6787 18.144 92.2067 18.016 91.8387 17.76C91.4867 17.488 91.2787 17.12 91.2147 16.656L91.1427 15.648C90.5827 16.512 89.8627 17.16 88.9827 17.592C88.1027 18.024 87.1347 18.24 86.0787 18.24ZM103.003 18.24C102.139 18.24 101.339 18.072 100.603 17.736C99.8666 17.4 99.2346 16.936 98.7066 16.344C98.1786 15.752 97.7626 15.064 97.4586 14.28C97.1706 13.48 97.0266 12.624 97.0266 11.712C97.0266 10.8 97.1626 9.952 97.4346 9.168C97.7226 8.384 98.1146 7.696 98.6106 7.104C99.1066 6.512 99.6986 6.048 100.387 5.712C101.075 5.376 101.827 5.208 102.643 5.208C103.571 5.208 104.403 5.432 105.139 5.88C105.891 6.328 106.475 6.912 106.891 7.632V0.48H110.107V14.304C110.107 14.64 110.163 14.88 110.275 15.024C110.387 15.168 110.579 15.248 110.851 15.264V18C110.291 18.112 109.835 18.168 109.483 18.168C108.907 18.168 108.435 18.024 108.067 17.736C107.699 17.448 107.491 17.072 107.443 16.608L107.371 15.816C106.907 16.616 106.275 17.224 105.475 17.64C104.691 18.04 103.867 18.24 103.003 18.24ZM103.843 15.504C104.147 15.504 104.459 15.456 104.779 15.36C105.099 15.248 105.395 15.096 105.667 14.904C105.939 14.712 106.179 14.488 106.387 14.232C106.611 13.976 106.779 13.696 106.891 13.392V10.392C106.763 10.04 106.579 9.72 106.339 9.432C106.115 9.128 105.851 8.872 105.547 8.664C105.259 8.44 104.947 8.264 104.611 8.136C104.291 8.008 103.971 7.944 103.651 7.944C103.171 7.944 102.723 8.048 102.307 8.256C101.907 8.464 101.563 8.752 101.275 9.12C100.987 9.472 100.763 9.88 100.603 10.344C100.443 10.808 100.363 11.288 100.363 11.784C100.363 12.312 100.451 12.8 100.627 13.248C100.803 13.696 101.043 14.088 101.347 14.424C101.651 14.76 102.011 15.024 102.427 15.216C102.859 15.408 103.331 15.504 103.843 15.504ZM113.983 18V5.424H117.199V18H113.983ZM113.983 3.672V0.48H117.199V3.672H113.983ZM126.629 18.24C125.605 18.24 124.685 18.064 123.869 17.712C123.053 17.36 122.357 16.888 121.781 16.296C121.221 15.688 120.789 14.992 120.485 14.208C120.181 13.424 120.029 12.6 120.029 11.736C120.029 10.856 120.181 10.024 120.485 9.24C120.789 8.456 121.221 7.768 121.781 7.176C122.357 6.568 123.053 6.088 123.869 5.736C124.685 5.384 125.605 5.208 126.629 5.208C127.653 5.208 128.565 5.384 129.365 5.736C130.181 6.088 130.869 6.568 131.429 7.176C132.005 7.768 132.445 8.456 132.749 9.24C133.053 10.024 133.205 10.856 133.205 11.736C133.205 12.6 133.053 13.424 132.749 14.208C132.445 14.992 132.013 15.688 131.453 16.296C130.893 16.888 130.205 17.36 129.389 17.712C128.573 18.064 127.653 18.24 126.629 18.24ZM123.341 11.736C123.341 12.296 123.421 12.808 123.581 13.272C123.757 13.72 123.989 14.112 124.277 14.448C124.581 14.784 124.933 15.048 125.333 15.24C125.733 15.416 126.165 15.504 126.629 15.504C127.093 15.504 127.525 15.416 127.925 15.24C128.325 15.048 128.669 14.784 128.957 14.448C129.261 14.112 129.493 13.712 129.653 13.248C129.829 12.784 129.917 12.272 129.917 11.712C129.917 11.168 129.829 10.664 129.653 10.2C129.493 9.736 129.261 9.336 128.957 9C128.669 8.664 128.325 8.408 127.925 8.232C127.525 8.04 127.093 7.944 126.629 7.944C126.165 7.944 125.733 8.04 125.333 8.232C124.933 8.424 124.581 8.688 124.277 9.024C123.989 9.36 123.757 9.76 123.581 10.224C123.421 10.688 123.341 11.192 123.341 11.736Z" fill="white"/>
</svg>
